<svg xmlns="http://www.w3.org/2000/svg" xmlns:xlink="http://www.w3.org/1999/xlink" viewBox="0 0 1137.19 1142.21"><defs><style>.cls-1{fill:none;}.cls-2{clip-path:url(#clip-path);}.cls-3{fill:#fff;}.cls-4{fill:#999;}.cls-5{fill:#b3b3b3;}.cls-6{fill:#006548;}</style><clipPath id="clip-path"><circle class="cls-1" cx="576.04" cy="514.7" r="508.5"/></clipPath></defs><title>Asset 7</title><g id="Layer_2" data-name="Layer 2"><g id="Layer_1-2" data-name="Layer 1"><g class="cls-2"><path class="cls-3" d="M655.72,292.39a4.69,4.69,0,1,1-4.73,4.68A4.69,4.69,0,0,1,655.72,292.39Z"/><path class="cls-4" d="M655.72,292.39a4.69,4.69,0,1,1-4.73,4.68,4.69,4.69,0,0,1,4.73-4.68m0-5.68a10.37,10.37,0,1,0,10.37,10.36,10.4,10.4,0,0,0-10.37-10.36Z"/><path class="cls-5" d="M559.38,1142.21l-5.68,0c.13-29.13-2.23-58.17-4.51-86.25-3.13-38.67-6.38-78.65-3.48-120.93l5.67.39c-2.87,41.85.36,81.62,3.48,120.08C557.15,1083.68,559.51,1112.84,559.38,1142.21Z"/><path class="cls-3" d="M409,657.64a4.69,4.69,0,1,1-4.73,4.68A4.69,4.69,0,0,1,409,657.64Z"/><path class="cls-5" d="M409,657.64a4.69,4.69,0,1,1-4.73,4.68,4.69,4.69,0,0,1,4.73-4.68m0-5.68a10.37,10.37,0,1,0,10.37,10.36A10.4,10.4,0,0,0,409,652Z"/><path class="cls-5" d="M281.14,674.8h-5.29V650.91h-5.47v-4.67h16.23v4.67h-5.47Z"/><path class="cls-5" d="M308.77,660.48q0,7.1-2.65,10.9a9.51,9.51,0,0,1-15.22,0q-2.65-3.79-2.65-10.95t2.65-10.87a8.79,8.79,0,0,1,7.66-3.78,8.68,8.68,0,0,1,7.58,3.8Q308.78,653.39,308.77,660.48Zm-15.09,0a17.68,17.68,0,0,0,1.23,7.44,3.88,3.88,0,0,0,3.61,2.56q4.8,0,4.81-10t-4.77-10a3.92,3.92,0,0,0-3.65,2.55A17.7,17.7,0,0,0,293.68,660.48Z"/><path class="cls-5" d="M328.5,655c0,3-.76,5.36-2.29,7a8.69,8.69,0,0,1-6.63,2.44h-1.33V674.8h-5.31V646.24h7.24Q328.51,646.24,328.5,655Zm-10.25,4.81h1a3.68,3.68,0,0,0,2.91-1.08,6.82,6.82,0,0,0,.08-6.84,3.26,3.26,0,0,0-2.71-1.09h-1.29Z"/><path class="cls-5" d="M345,674.8H332.1V646.24H345v4.59h-7.56v6.8h7v4.61h-7v7.91H345Z"/><path class="cls-5" d="M366.92,674.8h-5.66l-4.69-12.21-2.13,2.13V674.8h-5.31V646.24h5.31V660.4l1.85-4.28,4.87-9.88h5.68l-6.6,12.37Z"/><path class="cls-5" d="M383,674.8l-1.64-7.21h-7.44l-1.64,7.21h-5.31L374,646.12h7.21l7.09,28.68Zm-2.63-11.92-1.53-6.64c-.09-.4-.29-1.41-.61-3s-.51-2.71-.58-3.26c-.17,1.12-.38,2.36-.64,3.7s-.94,4.43-2,9.23Z"/><path class="cls-5" d="M471.87,502.59l-4.37.23-.19-.2,1.22-2.82-.11-1.62.07-.24,1.65-2.07v-2.41l-.6-1.86L467.48,490l-1.47-.2-.48-2.4-4.34-3.86.71-1.23v-3.58l-2.41-4.15-6.09-1.44.08-1.51-.54-1.59-2.24-2.16-5-1.84.3-2.14-.68-1.87-1.24-1.33-.61-3.28-1.64-3,.26-1.65-.55-2.89-3-2.94,1.27-1.41v-1.39l1.73-.75.86-2.17.15-3.54-1.42-3.35-2.29-2.06-3.21.34-2.46,2-.72,2.49L431,436.9l0-.34-.69-2.3,2.14-2.39-.17-5.09-5.48-6.93-4.58-2-.14-.46L418,412.55l.16-.43,3.22-2,2.21-3.39-.18-1.08-1-3.52.57-1.95-.16-2.67-.43-.93,1.27-.45,1.85-1.84.53-3.62-.57-1.64-2.14-2.31-.23-.67,1-5.37-.89-2.69-2.93-1.86.91-2.06-.38-2.7-2-2.18,1.88-2.57-.63-3.95.16-.66-.51-2.53-.44-.76,2.43-1.52,1.11-1.94-.36-2.05-1.43-2.5-7-.9,1.53-2.48-1-3.91,4.24-2.46.49-4.31-1-2.37-2-1.76-4.31-.86.67-.47,1-2v-2l-.94-1.77.87-1.89-.39-2,.94-1.13,1-2.6-2.26-4-5-1.07-.66.48-1.49-.66.72-.72.95-2.53-1.49-4.59-2.34-2.29-3.26-.29-2.45,1.41-.59,2.35-.63-.13-.69-1,0-.09.69-.19,1.62-2.6-1-3.14-3.21-2,1.93-3.34-.1-3.17-2.05-2.71,2.83-.14,1.74-2.71-.46-3.45-2.63-1.65,3.46-6,.13-2-.6-1.7-1.74-1.77-1.67-.47-.56-.6.1-1.62-.7-2.5-3-2-.31-.58-.11-1.16-.64-1,1.41-1,.39-2.93-.62-2.06,1-2.19-.23-2.31L389,245.29l-2.87-.28V243.9l-.92-2.31-3-1.07-1.11-2.77-3.86-.85.27-.87-.08-2.32-.9-2.19v-.61l-.06-.08.51-1-1-2.65-2.58-2.28-1.5-.36-.32-1.95-3.06-1.7.09-1.89-.4-1.1,1.6-.81,1.06-2.31v-1.93l-.86-1.35.59-1.3.18-1.55-.63-1.68-.79-1.84h-.92l-2-1.33-2.74-4.76-2.22-1.42.93-1,.21-1.81-.49-2.1.12-1.41,2.79-3.18.07-6.3-1.94-3.5-8.16-1-3.43.83-4.75-4.91-5.38.24-.47.58-.89.4-.33-2.32-9.2-8.6,3.39-4.49L331.15,155l-10.81-1.37-.08-1.57-1.81-2.67-13.52-4.51-1.3.9-.19-.8-2.19-2.73-5-1.09-.53.25L285.06,140l-.46-2-3.25-1.42-4.2-1-.09-2.8-1.66-2.48-22.69-2.94-2.77,2.48-.82.16-2-.83-1.85-1.58L236,130l-.88-2.3-4-.17-3,1.4L226,131.39,224.52,129,218.7,128l-2.77,3.34-.16.15-.65.09-.11,0-1.27-2.38-.85-1.5h-.79l-.51-.36-7.78,1-2.41,2.87-.1,2.52-3.56,4.86-10.46,1.8-.27-.52-10.24-8.56-2.84.21L160.24,126l-15.12-7.18-5.29-8.71-81.27.13L28.9,110l-15,0c-.73,1.88-1.42,3.78-2.09,5.68H28.89l29.65.18,78.1-.12,4.51,7.42L155.48,130v.19l16.14,6.45.52.63,2.75-.2,7.61,6.35.79,1.52,1,.51.8,1L201,143.73l5.94-8.12.08-2,2.52-.32L211,136l3.39,1.41,4-.52,2.66-2.53,0-.15,1.7,2.69,2.41,1.4,3.32-1,2.34-2.68v.31l2.89,1.61,10.14-2.65.28.24,4.42,1.84,4-.81,2-1.77,16.79,2.18-.25,1.71,2.05,3.27,6.18,1.42.38.17.71,3.09L294.77,147l1.62.35.54-.24,1,.22-.73,3.3,3.32,2.07,3.26-.12,2-1.42,8.84,2.95.16,3.11,2,1.69,9.29,1.18-.74,1-1.29,4.24,10.33,9.66-.64,3,1.05,1.08,1.51,1.48h.49l1.71.93,5.2-2.29.81,0,5.24,5.41,5.6-1.36,4.05.48,0,2.35-2.64,3-.36,4.17.32,1.36-1.75,2v3.79l4.51,2.89,2.69,4.69,2.5,1.69-.49,1.08-.15,2.17.44.7-1.39.7-1,1.62v2.08l.75,2.06-.1,2.09,1.28,2.94,2.36,1.32.22,1.36,2.23,2.08,1.54.37-.05.1.22,1-.11,1,.34.51.94,2.3,0,.34-.63,2,.38,2.72,2.28,2,1.82.39-.17.26-.12,3.72,2.84,2.36,2.69-.84,1.35,2.47,2.92.28-.25,2,.46,1.54L383,255.77l.2,3.13,1.43,2.17.08.9,1.54,2.82,2.28,1.53-.17,2.77,3.32,3.52.76.22-3.33,5.78v2.71l.61,1-1.86,1.37-.6,3.22.36,1.94L390,292l-2.29,3.93.19,2.2,1.84,2.61,1.16.74-.3.33-.94,4,3.37,5,4.85,1,.47-.16-.32,1.39,1.15,2.88,7.2,3.16,1.47-.22-.31.37-.3,1.86.31,1.67-.85,1.86v1.76l.75,1.4-2,1.38-.78,1.93.54,2.71,2.85,2.64-.77,1.6,2.09,8.33-1.65,2.7-.11,2.89,1.85,3,3.47.45-.13.37-.16,3,1.6,2.75.07.38-.13.56.44,2.71-2,2.72-.24,1.83.66,1.65,2,2.25-.83,1.87v2.27l.93,1.93,2.88,1.83-.94,5,1.13,3.21,1.58,1.71-2.61.93-1.4,3.82,1.28,2.76,0,.6-.79,2.66,1.1,3.44-.21.33-3.85,2.38-1.17,3.34v2.93l4.75,5.55.54,1.84,5.7,2.49,3.45,4.35,0,1-2.06,1.57-.55,2.59.49,2.06.45.42.21.68-.1,1,.66,2.3,2.54,1.86,4.69.59.49,0v.66l0,.1L432,445.28v2.3l.62,1.56,3.67,3.55,0,.15-.41,2.59,2.14,3.91.75,4,.82.88-2.8,1.65-.44,2.55.87,2.56,2.56,1.45,3.65-1.17,4,1.45-.24,1.94,1.49,3.23h.52l.06.1,6.52,1.55.41.71v.53L455,482.84l-.23,2.59,5.54,4.93.48,2.36,1.73,2.32.89.12-.13.16-.61,2.31.08,1.17-1,2.32-.18,1.85.5,2.36,1.32,1.41-37.9-.09H377.68l-23.89-.12-36.32.05-20.56-.05-39-.19H210l-11.4.12L162,506.34H137.74l-23.76.12-35.8.07L19,506.46H0q.27,2.85.56,5.68H18.81l47.44.07,47.75-.07,23.75-.12H162l36.62.12L210,512h47.73l39.14.19,20.58.06,36.31-.06,23.88.12h47.82l47.3.12h.06L483,512Z"/><path class="cls-5" d="M272.2,342.07q0,7.1-2.65,10.9a9.51,9.51,0,0,1-15.22,0q-2.66-3.8-2.65-11t2.65-10.87a8.78,8.78,0,0,1,7.66-3.78,8.68,8.68,0,0,1,7.58,3.8Q272.2,335,272.2,342.07Zm-15.09,0a17.75,17.75,0,0,0,1.23,7.44,3.88,3.88,0,0,0,3.61,2.56q4.8,0,4.8-10t-4.76-10a3.91,3.91,0,0,0-3.65,2.55A17.7,17.7,0,0,0,257.11,342.07Z"/><path class="cls-5" d="M286.56,356.39l-5.43-24.32h-.22a39.22,39.22,0,0,1,.38,5.16v19.16h-4.93V327.83h8.17l4.88,22.44h.16l4.84-22.44h8.28v28.56h-5V337a43.75,43.75,0,0,1,.28-4.92h-.16l-5.41,24.28Z"/><path class="cls-5" d="M321.25,356.39l-1.64-7.21h-7.45l-1.64,7.21h-5.31l7.07-28.68h7.21l7.09,28.68Zm-2.64-11.92-1.52-6.64c-.1-.4-.3-1.41-.62-3s-.51-2.7-.58-3.25c-.16,1.12-.38,2.36-.64,3.7s-.94,4.43-2,9.23Z"/><path class="cls-5" d="M346.73,356.39h-5.31V343.87h-7v12.52H329.1V327.83h5.31v11.35h7V327.83h5.31Z"/><path class="cls-5" d="M365.29,356.39l-1.64-7.21h-7.44l-1.64,7.21h-5.32l7.07-28.68h7.21l7.09,28.68Zm-2.64-11.92-1.52-6.64c-.09-.4-.3-1.41-.62-3s-.51-2.7-.57-3.25c-.17,1.12-.39,2.36-.65,3.7s-.93,4.43-2,9.23Z"/><path class="cls-5" d="M885,462.85H882.4l-1.6-1.34h-1.44l-1.92-2.66v-.11l-3.8-2.37v-2.43l.11-.26-.47-.59-.36-1.59-1.91-.26-2.27-2.05-1.49-3.07-2.84-2.07-.73-2.29.08-1.5-5.86-1.61-1.42-2.75v-1.59l.14-.41-2.48-1.7-.58-.88-21.09.9-25,.85-18.7.43-30.07.79-8,.12-40.49.85L680,435.8l-18.42.12-23.46.25-25.39.48-22.86.37-25.31.06L547.61,437l-30.1-.49-30.28-.6-18-.25-46.84-.83,4.38-5,0-1-3.44-4.35-5.7-2.49-.54-1.84-4.75-5.55v-2.93l1.17-3.34,3.85-2.38.21-.33-1.1-3.44.79-2.66,0-.6-1.28-2.76,1.4-3.82,2.61-.93-1.58-1.71-1.13-3.21.94-5-2.88-1.83-.93-1.93v-2.27l.83-1.87-2-2.25-.66-1.65.24-1.83,2-2.72-.44-2.71.13-.56-.07-.38-1.6-2.75.16-3,.13-.37-3.47-.45-1.85-3,.11-2.89,1.65-2.7-2.09-8.33.77-1.6-2.85-2.64-.54-2.71.78-1.93,2-1.38-.75-1.4v-1.76l.85-1.86-.31-1.67.3-1.86.31-.37-1.47.22-7.2-3.16-1.15-2.88.32-1.39-.47.16-4.85-1-3.37-5,.94-4,.3-.33-1.16-.74-1.84-2.61-.19-2.2L390,292l-2.4-3.16-.36-1.94.6-3.22,1.86-1.37-.61-1v-2.71l3.33-5.78-.76-.22-3.32-3.52.17-2.77-2.28-1.53L384.73,262l-.08-.9-1.43-2.17-.2-3.13,2.35-1.65-.46-1.54.25-2-2.92-.28-1.35-2.47-2.69.84-2.84-2.36.12-3.72.17-.26-1.82-.39-2.28-2-.38-2.72.63-2,0-.34-.94-2.3-.34-.51.11-1-.22-1,.05-.1-1.54-.37-2.23-2.08-.22-1.36-2.36-1.32L362.81,222l.1-2.09-.75-2.06v-2.08l1-1.62,1.39-.7-.44-.7.15-2.17.49-1.08-2.5-1.69-2.69-4.69L355,200.22v-3.79l1.75-2-.32-1.36.36-4.17,2.64-3,0-2.35-4.85-.57-5.08-1.7.12-1.69-1.48-.45-.47-5,1.3-.58-1.35-1.45-.58-1.44.36-2.4-.26-1h0l-2.08-.86-1.31-1.66V162.5l.66-.83-1-.83-2.46.66v-2.85l-1.63-.07-.2-2H339l-.71-1-1.59.7-1.51-2.23-1.67-1.39v-1.82l-.72-2,0-.07-.24-2.13.61-.75-.15-.08v-3.48l2.83-3.34.42-.17v-.2l.56-.37-.1-.21,1.86-2.67-.24-.3.87-2,1-2.18.94.28v-.1l.8-.35v-.24l-.06-.15.43-2.16.27-.28-.19-.86.55-.55-.09-.3.25-1.84v-1.83l3.21-4.73-1-1.22.15-2.9.31-.43-.14-1.07,1.16-.71-1.14-.59V110l-2.33-.24,2.74-5.56,3.19-1,1.77-1.58h0l.72-3,1.81-2.48-2.87-2.1.32-4-.75-2.25.05-1.52-2.63.27-1.93-1.2h-.19l-1.35.59-2.4-.75-1.65-2.62-.18-1.95.5-1.14-1.54-.6-1-3.24-3.43-1.19,6.11-4.09,3.45-.21-.33-2.55.55-1.31-.06-4,.23-.18-2.14-.81-.64-1.41-.86-.34-.83-1.66-.36-.08-3-2.57.53-4.21,1-1.31,0-.55-1.34-.71V47.12l-2-3.72,19.89-.08,42.5-.06,20.47-.06h50.11l50-.12,6,.12h44l20.36-.12,29.6-.06h34l16.11.06L718,43.2l49.82.06,10.83.06H912l-.5,7-.89,1.76v0l2.32,2.77.25,1,.92,4.71-1,3.14,1.6.68.72-.18,8.46,5.21,2.73,6.08,1.54,1.19.41,2-.27,1.83L917,96.3h-.77l0,5.57,2.12,10.74.2.58-.17,1.73,1.16,2.06.25,6.79.06.11,3.68,2.59,1.7,4.94,1.53,1.33.94,9.08,1,2-.16.65.1.13,1,.17,2.08,1.56,0,.8,12.39,5.83,21.2,5.62,4.85,10.9,2.43,2.45,1.35,4.78-1.48,2.53L972,180l9,5.53.54,1.83,7.77,4.82.56.28,4.91,6.13.31,0,1.44,1.46.63,2.15-1.32,4.52.8,2.94,4,4.8,4.54,1.86,13.34,6.4.67,2.74,2.92.74,1.54,2.18-.25,8.57.32,1.33.66,1.05,1.9,4.09-.34,2.47-.63,1-.39,2-1.44,2.21.83,2.56.57,3.19-3.35,9-.1,4.69-1,2-6.66,3.6-6.66,5.27.11,5.2-1.81,1.8-.84,11.78L989.81,311l-9-.37-4.27,1.94,0,.14-1,1.72-5.92,4.64-14.5,1.21-25.26,4.43-.43,2.51-1.29,2.08-.67,4.66-.3,3.12-3.92,7.51,2.12,3.3.35,1.64.1.12L928,351l.74,1.79,5.28.2,6.46,10.48-.06,4.52-.68,12.73,0,.09.32,2L938.44,389l-2,1.44L925.3,402.11l-.16.53.41,1.57-.32,4.06-1.91,4.24-.17,5.58-.39,2.35-2,3.08-7,4.34-11.34,1.69L892,436.65l3.58,3.38,1.09,4.5-1.7,7.37,1.57,3.92-.57,3.28-3,2.34L887,462.71l-.75-.62Zm-1.19-7.16,4.56.91,2.16-.49L889,452.35l1.8-7.79-.37-1.56-5-4.74.93-4.63,14-9.51,11.45-1.7,4.9-3.06.68-1,.16-1,.16-6.13,2-4.38.17-2.13-.57-2.18,1-3.35,11.13-11.68v-.43l2.11-1.54.81-3L934,382l.76-14.25,0-2.7-4-6.5-3.94-.15-2.84-2-.59-1.53-.09-.06h-.53l-.95-1-1.43-1.69-.43-2L917.38,346l-.17-2.12,4.39-8.43.28-2.82.07-.18.71-5.1,1.33-2.16.93-5.37,29.58-5.17,12.93-1.08,3.61-2.83.36-2.07,8.24-3.76,8.42.35,11-8.09.8-11.27,1.6-1.59-.08-3.81.39-2.12,9.06-7.12,4.89-2.64.08-3.83,3.14-8.45-.26-1.45-1.13-3.37.14-2,1.8-2.77.39-1.93.39-.61-1-2.19-.89-1.33-.46-1.89-.25-.32,0-1.09.19-6.3-1.66-.42-2.06-1.66-.54-2.23-10.83-5.21-5.63-2.29-5.65-6.85L990,206.7,991,203l-4.84-6.06-9.48-5.9-.54-1.8-10.29-6.31.5-4.79,1.49-2.24-.3-1-2.13-2.15-4.17-9.36L942,158.18l-14.51-6.83-.88-1.37L925,149.7l-.92-1.58-.14-.07-1.25-1.56v-.3l-.23-.31.26-1.36-.54-1.06-.82-7.9-1-.86-1.6-4.64-3.22-2.26-1.38-2.43-.25-6.8-1.36-2.42.22-2.28,0-.22-2.19-11.26.05-8,.79-2,2.3-1.18,8.5-11.92-.18-.14-2.61-5.8-4.93-3-.24.07L908,67.72,906.6,64.3l.49-1.91.68-.78.43-1.36-.53-2.74-2.19-2.63-.65-2.11.1-2.13.82-1.64H778.61l-10.83,0-52.61-.07-63.36-.18H617.86l-29.58.06-20.36.12H523.81l-6-.12-57.22.12H417.78L397.31,49l-42.49,0-10.91,0,.11,2.51-.91,1.18,1.41.29.88,2.21.57.22.62,1.38,2.23.84,1.87,2-.1,5-.58.45,0,2.33-.42,1,.43,3.24-1.39,3.94-3.05.18.36.48,1,1.12.7,2.48,1.14.71.53-.39,3.19-.29L355,81.69l1.15,2.62L356.07,87l.8,2.36-.16,2,1.68,1.23,1.18,2.82-.32,2.75-1.47,2,.25,1.26-.15,1.15.18.34-2.18,3.4-2.36.91-.09,0-.89.8,1.09,2.42v2.3l-1.39,2.16-.29.18.07.08,1.43,3.57-1.17,1.15.64,2.38-2.11.39-.39,4.67L350,127l-.31,2.74-.89.17-.35.88.14.17v3.22l-1.19.51.08.7-1,.85,0,.64L344,138.62l-.6-.15-.12.16.78,1.73L342,141.69v1l-1.95.76,2.41,2.33L339,147.45l.33.35-.08.2h0l.24,1.53,2.28,1.14.23.32,2.24,2.13.49,0,1,1.38,2.65,1.38.18,1.42h.07l2.44,3.46v.93l.14.07,1.24,3.26,2.12,1.25.46.07,0,.17,1.54.9-2.08,1.11-.21.78.63.42.31,5.9-.28.5.54,1.17.4.13,7.36.87,1.94,3.5-.07,6.3-2.79,3.18-.12,1.41.49,2.1-.21,1.81-.93,1,2.22,1.42,2.74,4.76,2,1.33h.92l.79,1.84.63,1.68-.17,1.55-.59,1.3.85,1.35v1.93l-1.06,2.31-1.6.81.4,1.1-.09,1.89,3.06,1.7.32,1.95,1.5.36,2.58,2.28,1,2.65-.51,1,.06.08v.6l.9,2.2.08,2.32-.27.87,3.86.85,1.11,2.77,3,1.07.92,2.31V245l2.87.28,2.49,2.37.23,2.31-1,2.19.62,2.06-.39,2.93-1.41,1,.64,1,.11,1.16.31.58,3,2,.7,2.5-.1,1.62.56.6,1.67.47,1.74,1.77.6,1.7-.13,2-3.46,6,2.63,1.65.46,3.45-1.74,2.71-2.83.14,2.05,2.71.1,3.17-1.93,3.34,3.21,2,1,3.14-1.62,2.6-.69.19,0,.09.69,1,.63.12.59-2.35,2.45-1.41,3.26.29,2.34,2.29,1.5,4.59-1,2.53-.72.72,1.49.66.66-.48,5,1.07,2.26,4-1,2.6-.94,1.13.39,2-.87,1.89.94,1.77v2l-1,2-.67.47,4.31.86,2,1.76,1,2.37-.49,4.31-4.24,2.46,1,3.91L414,349.81l7,.9,1.43,2.5.36,2.05-1.11,1.94-2.43,1.52.44.76.51,2.53-.16.66.63,3.95-1.89,2.57,2,2.18.38,2.7-.91,2.06,2.93,1.86.89,2.69-1,5.37.23.67,2.14,2.31.57,1.64-.53,3.62-1.85,1.84-1.27.45.43.93.16,2.67-.57,1.95,1,3.52.18,1.08-2.21,3.39-3.22,2-.16.43,4.14,4.84.14.46,4.58,2,5.48,6.93.08,2.5,36.89.66,18,.24,30.29.61,30.06.48,16.9.13,25.25-.07,22.81-.36,25.41-.48,23.5-.25,18.39-.12,30.14-.54,40.49-.85,8-.12,30-.79,18.68-.43,25-.84,24.28-1,1.75,2.64,3.3,2.27,1,3.61h0l4.83,1.33,2.18,2-.16,3.34,2.32,1.69,1.62,3.36.15.13,5.3.73L880,450.2l-.47.8.76,1.56-.41,1,2.72,1.7.19.55h.69l.13.08Z"/><path class="cls-5" d="M581.26,264.56q0,7.06-2.88,10.81a9.84,9.84,0,0,1-8.29,3.74h-7V250.55h7.64a9.16,9.16,0,0,1,7.75,3.68Q581.27,257.92,581.26,264.56Zm-5.45.15q0-9.57-5.27-9.57h-2.13v19.32h1.72a4.62,4.62,0,0,0,4.3-2.43Q575.81,269.6,575.81,264.71Z"/><path class="cls-5" d="M598.29,279.11H585.42V250.55h12.87v4.59h-7.55v6.8h7v4.61h-7v7.91h7.55Z"/><path class="cls-5" d="M615.46,271.24a8.57,8.57,0,0,1-2,6.13,7.66,7.66,0,0,1-5.83,2.13,12.8,12.8,0,0,1-6.35-1.47v-5.25a11,11,0,0,0,5.88,2.09,3,3,0,0,0,2.3-.84,3.27,3.27,0,0,0,.77-2.29,4.13,4.13,0,0,0-.92-2.6,13.38,13.38,0,0,0-3-2.63,13.77,13.77,0,0,1-2.78-2.43,8.81,8.81,0,0,1-1.46-2.61,9.8,9.8,0,0,1-.52-3.36,8.1,8.1,0,0,1,2-5.82,7.21,7.21,0,0,1,5.48-2.15,12,12,0,0,1,6.31,1.84l-1.76,4.26a15.58,15.58,0,0,0-2-1,5.6,5.6,0,0,0-2.2-.43,2.39,2.39,0,0,0-2,.85,3.52,3.52,0,0,0-.7,2.31,4,4,0,0,0,.83,2.52,12.32,12.32,0,0,0,2.9,2.44,12.16,12.16,0,0,1,3.9,3.83A9,9,0,0,1,615.46,271.24Z"/><path class="cls-5" d="M639.06,279.11l-5.43-24.32h-.22a39.22,39.22,0,0,1,.37,5.16v19.16h-4.92V250.55H637L641.91,273h.15l4.85-22.44h8.28v28.56h-5V259.75a46.18,46.18,0,0,1,.27-4.92h-.15l-5.41,24.28Z"/><path class="cls-5" d="M679.88,264.79q0,7.09-2.66,10.9a9.5,9.5,0,0,1-15.21,0q-2.67-3.79-2.66-10.95T662,253.88a8.78,8.78,0,0,1,7.65-3.78,8.67,8.67,0,0,1,7.58,3.8Q679.88,257.7,679.88,264.79Zm-15.1,0a17.71,17.71,0,0,0,1.23,7.44,3.88,3.88,0,0,0,3.61,2.56q4.82,0,4.81-10t-4.77-10a3.92,3.92,0,0,0-3.65,2.55A17.7,17.7,0,0,0,664.78,264.79Z"/><path class="cls-5" d="M685,279.11V250.55h5v28.56Z"/><path class="cls-5" d="M716,279.11h-6.49l-8.82-20.69h-.26a24.81,24.81,0,0,1,.49,5.08v15.61H696V250.55h6.52L711.3,271h.22a27.56,27.56,0,0,1-.37-4.88V250.55H716Z"/><path class="cls-5" d="M733.94,279.11H721.07V250.55h12.87v4.59h-7.56v6.8h7v4.61h-7v7.91h7.56Z"/><path class="cls-5" d="M751.11,271.24a8.61,8.61,0,0,1-2,6.13,7.67,7.67,0,0,1-5.83,2.13,12.77,12.77,0,0,1-6.35-1.47v-5.25a11,11,0,0,0,5.88,2.09,3,3,0,0,0,2.29-.84,3.22,3.22,0,0,0,.77-2.29,4.12,4.12,0,0,0-.91-2.6,13.85,13.85,0,0,0-3-2.63,13.87,13.87,0,0,1-2.79-2.43,8.81,8.81,0,0,1-1.46-2.61,9.8,9.8,0,0,1-.52-3.36,8.1,8.1,0,0,1,2-5.82,7.21,7.21,0,0,1,5.48-2.15A12,12,0,0,1,751,252l-1.76,4.26a14.93,14.93,0,0,0-2-1,5.57,5.57,0,0,0-2.2-.43,2.39,2.39,0,0,0-2,.85,3.57,3.57,0,0,0-.69,2.31,3.94,3.94,0,0,0,.83,2.52,12.11,12.11,0,0,0,2.9,2.44,12,12,0,0,1,3.89,3.83A8.86,8.86,0,0,1,751.11,271.24Z"/><path class="cls-3" d="M613.1,617.32h-5.66l-4.69-12.21-2.13,2.13v10.08h-5.31V588.77h5.31v14.16l1.86-4.28,4.86-9.88H613l-6.6,12.36Z"/><path class="cls-3" d="M629.14,617.32l-1.64-7.21h-7.45l-1.64,7.21H613.1l7.07-28.67h7.21l7.09,28.67Zm-2.64-11.91L625,598.77c-.1-.41-.3-1.42-.62-3s-.51-2.71-.58-3.25c-.17,1.12-.38,2.35-.64,3.7s-.94,4.42-2,9.23Z"/><path class="cls-3" d="M657,617.32H650.5l-8.83-20.68h-.25a24.74,24.74,0,0,1,.49,5.08v15.6H637V588.77h6.52l8.75,20.47h.22a27.59,27.59,0,0,1-.38-4.89V588.77H657Z"/><path class="cls-3" d="M675,609.45a8.55,8.55,0,0,1-2,6.13,7.64,7.64,0,0,1-5.83,2.13,12.93,12.93,0,0,1-6.35-1.46V611a11,11,0,0,0,5.88,2.09,3,3,0,0,0,2.3-.84,3.26,3.26,0,0,0,.77-2.28,4.18,4.18,0,0,0-.92-2.61,13.64,13.64,0,0,0-3-2.63,13.18,13.18,0,0,1-2.78-2.43,8.57,8.57,0,0,1-1.46-2.61,9.78,9.78,0,0,1-.52-3.35,8.14,8.14,0,0,1,2-5.83,7.21,7.21,0,0,1,5.48-2.14,12,12,0,0,1,6.31,1.83l-1.76,4.26a18.85,18.85,0,0,0-2-1A5.79,5.79,0,0,0,669,593a2.42,2.42,0,0,0-2,.85,3.53,3.53,0,0,0-.7,2.32,4,4,0,0,0,.83,2.52,12.56,12.56,0,0,0,2.9,2.44,12.06,12.06,0,0,1,3.9,3.83A8.82,8.82,0,0,1,675,609.45Z"/><path class="cls-3" d="M692.07,617.32l-1.65-7.21H683l-1.64,7.21H676l7.07-28.67h7.21l7.09,28.67Zm-2.64-11.91-1.52-6.64c-.1-.41-.3-1.42-.62-3s-.51-2.71-.58-3.25c-.17,1.12-.38,2.35-.64,3.7s-.94,4.42-2,9.23Z"/><path class="cls-3" d="M712.92,609.45a8.55,8.55,0,0,1-2,6.13,7.64,7.64,0,0,1-5.83,2.13,12.86,12.86,0,0,1-6.34-1.46V611a10.9,10.9,0,0,0,5.87,2.09,3,3,0,0,0,2.3-.84,3.26,3.26,0,0,0,.77-2.28,4.18,4.18,0,0,0-.92-2.61,13.78,13.78,0,0,0-3-2.63,13,13,0,0,1-2.79-2.43,8.57,8.57,0,0,1-1.46-2.61,9.78,9.78,0,0,1-.52-3.35,8.14,8.14,0,0,1,2-5.83,7.21,7.21,0,0,1,5.48-2.14,12,12,0,0,1,6.31,1.83L711,594.45a17.91,17.91,0,0,0-2-1,5.79,5.79,0,0,0-2.2-.43,2.42,2.42,0,0,0-2,.85,3.59,3.59,0,0,0-.7,2.32,4,4,0,0,0,.83,2.52,12.56,12.56,0,0,0,2.9,2.44,12,12,0,0,1,3.9,3.83A8.82,8.82,0,0,1,712.92,609.45Z"/><path class="cls-3" d="M735.8,593c-1.53,0-2.73.9-3.61,2.68a17.12,17.12,0,0,0-1.32,7.44q0,9.93,5.18,9.92a9.51,9.51,0,0,0,4.75-1.44v4.73a9.57,9.57,0,0,1-5.36,1.38,8.41,8.41,0,0,1-7.41-3.84q-2.58-3.82-2.59-10.79t2.67-10.84a8.5,8.5,0,0,1,7.41-3.88,10.31,10.31,0,0,1,3,.43,11.71,11.71,0,0,1,3.08,1.5l-1.76,4.32A14.52,14.52,0,0,0,738,593.5,4.77,4.77,0,0,0,735.8,593Z"/><path class="cls-3" d="M745.8,617.32V588.77h5v28.55Z"/><path class="cls-3" d="M765.6,617.32h-5.29V593.43h-5.47v-4.66h16.23v4.66H765.6Z"/><path class="cls-3" d="M781,600l3.81-11.27h5.57l-6.78,17.11v11.44h-5.24V606.09l-6.75-17.32h5.6Z"/><path class="cls-3" d="M570.65,506.21l-9-39.46h-.35a63.54,63.54,0,0,1,.65,8.37l.18,31.14-8,.05-.28-46.4,13.27-.08,8.15,36.42h.25l7.66-36.52,13.46-.07.27,46.4-8.19,0-.19-31.45a75.57,75.57,0,0,1,.4-8h-.25l-8.56,39.5Z"/><path class="cls-3" d="M627,505.88l-2.74-11.7-12.09.07L609.59,506,601,506l11.22-46.66,11.71-.07,11.79,46.53Zm-4.4-19.34-2.54-10.77c-.15-.66-.49-2.3-1-4.93s-.85-4.39-1-5.28q-.4,2.73-1,6t-3.21,15Z"/><path class="cls-3" d="M648.3,487.7l.11,18.05-8.63.05-.28-46.4,11.3-.06q7.19,0,10.61,3.33T664.88,473q.06,8.79-5.86,12.32l9,20.29-9.24.05-7.44-18Zm0-7.43,2.22,0q3,0,4.37-1.75a8.35,8.35,0,0,0,1.3-5.17q0-3.56-1.44-5.05a5.7,5.7,0,0,0-4.37-1.48h-2.16Z"/><path class="cls-3" d="M683.28,477.46l6.08-18.35,9-.05-10.85,27.86.11,18.6-8.51.05-.1-18.25-11.15-28.08,9.11-.06Z"/><path class="cls-3" d="M722.47,458.92l8.69-.05-10.64,46.46-11,.07-11.13-46.34,8.7-.05,6.22,28.3A101.74,101.74,0,0,1,715,497.68q.65-5.74,1.62-10.39Z"/><path class="cls-3" d="M737.08,505.23l-.27-46.4,8.13,0,.27,46.4Z"/><path class="cls-3" d="M755,505.13l-.28-46.4,8.64-.05.22,38.84,12-.06,0,7.55Z"/><path class="cls-3" d="M781.14,505l-.28-46.4,8.64-.05.22,38.84,12-.07,0,7.56Z"/><path class="cls-3" d="M828.17,504.7l-20.91.12-.28-46.4,20.92-.12,0,7.46-12.28.07.07,11,11.39-.06,0,7.49-11.39.06.07,12.86,12.29-.07Z"/><path class="cls-3" d="M394.76,338.36A4.69,4.69,0,1,1,390,343,4.69,4.69,0,0,1,394.76,338.36Z"/><path class="cls-4" d="M394.76,338.36A4.69,4.69,0,1,1,390,343a4.69,4.69,0,0,1,4.72-4.68m0-5.68A10.37,10.37,0,1,0,405.13,343a10.39,10.39,0,0,0-10.37-10.36Z"/><path class="cls-5" d="M855.46,705.57a8.55,8.55,0,0,1-2,6.13,7.66,7.66,0,0,1-5.83,2.13,12.8,12.8,0,0,1-6.35-1.47v-5.25a11,11,0,0,0,5.88,2.09,2.94,2.94,0,0,0,2.29-.84,3.22,3.22,0,0,0,.78-2.28,4.16,4.16,0,0,0-.92-2.61,13.38,13.38,0,0,0-3-2.63,13.77,13.77,0,0,1-2.78-2.43A8.93,8.93,0,0,1,842,695.8a10.06,10.06,0,0,1-.51-3.36,8.1,8.1,0,0,1,2-5.82,7.19,7.19,0,0,1,5.47-2.15,12,12,0,0,1,6.31,1.84l-1.75,4.26a16.43,16.43,0,0,0-2-1,5.52,5.52,0,0,0-2.19-.43,2.41,2.41,0,0,0-2,.85,3.58,3.58,0,0,0-.69,2.32,4,4,0,0,0,.83,2.51,12.1,12.1,0,0,0,2.9,2.45,12.15,12.15,0,0,1,3.9,3.82A9,9,0,0,1,855.46,705.57Z"/><path class="cls-5" d="M867.75,713.44h-5.3V689.55H857v-4.67h16.23v4.67h-5.46Z"/><path class="cls-5" d="M874.8,710.76a3.27,3.27,0,0,1,.81-2.36,3.19,3.19,0,0,1,2.41-.84,3.27,3.27,0,0,1,2.42.83,3.21,3.21,0,0,1,.82,2.37,3.17,3.17,0,0,1-.85,2.37A3.25,3.25,0,0,1,878,714a3.19,3.19,0,0,1-2.4-.85A3.24,3.24,0,0,1,874.8,710.76Z"/><path class="cls-5" d="M895.83,713.44V684.88h5.31v23.91h7.37v4.65Z"/><path class="cls-5" d="M931.55,699.12q0,7.1-2.65,10.9a9.51,9.51,0,0,1-15.22,0Q911,706.24,911,699.08t2.65-10.87a8.79,8.79,0,0,1,7.66-3.78,8.68,8.68,0,0,1,7.58,3.8Q931.55,692,931.55,699.12Zm-15.09,0a17.68,17.68,0,0,0,1.23,7.44,3.88,3.88,0,0,0,3.61,2.56q4.8,0,4.8-10t-4.76-10a3.91,3.91,0,0,0-3.65,2.55A17.7,17.7,0,0,0,916.46,699.12Z"/><path class="cls-5" d="M953.27,684.88v18.48q0,5.1-2.3,7.78a8.31,8.31,0,0,1-6.66,2.69,8,8,0,0,1-6.49-2.67q-2.22-2.65-2.22-7.88v-18.4h5.27v18.79c0,3.64,1.2,5.45,3.61,5.45a2.94,2.94,0,0,0,2.6-1.38,7.17,7.17,0,0,0,.92-4V684.88Z"/><path class="cls-5" d="M959.15,713.44V684.88h5v28.56Z"/><path class="cls-5" d="M983.19,705.57a8.55,8.55,0,0,1-2,6.13,7.64,7.64,0,0,1-5.83,2.13,12.76,12.76,0,0,1-6.34-1.47v-5.25a11,11,0,0,0,5.87,2.09,3,3,0,0,0,2.3-.84,3.26,3.26,0,0,0,.77-2.28,4.16,4.16,0,0,0-.92-2.61,13.52,13.52,0,0,0-3-2.63,13.59,13.59,0,0,1-2.79-2.43,8.68,8.68,0,0,1-1.46-2.61,9.8,9.8,0,0,1-.52-3.36,8.1,8.1,0,0,1,2-5.82,7.21,7.21,0,0,1,5.48-2.15,12,12,0,0,1,6.31,1.84l-1.76,4.26a17.06,17.06,0,0,0-2-1,5.6,5.6,0,0,0-2.2-.43,2.39,2.39,0,0,0-2,.85,3.53,3.53,0,0,0-.7,2.32,4,4,0,0,0,.83,2.51,12.31,12.31,0,0,0,2.9,2.45,12,12,0,0,1,3.9,3.82A8.89,8.89,0,0,1,983.19,705.57Z"/><path class="cls-3" d="M999.85,680.35a4.69,4.69,0,1,1-4.72,4.67A4.69,4.69,0,0,1,999.85,680.35Z"/><path class="cls-4" d="M999.85,680.35a4.69,4.69,0,1,1-4.72,4.67,4.69,4.69,0,0,1,4.72-4.67m0-5.69A10.37,10.37,0,1,0,1010.22,685a10.4,10.4,0,0,0-10.37-10.36Z"/><path class="cls-3" d="M567.13,566.2a23.92,23.92,0,0,0-23.89,23.89,24.21,24.21,0,0,0,.42,4.49c0,.09.07.35.17.8a23.36,23.36,0,0,0,1.6,4.71c2.57,6.06,8.23,15.37,20.65,25.34a1.7,1.7,0,0,0,1.06.38,1.73,1.73,0,0,0,1.07-.38c12.4-10,18.08-19.28,20.65-25.34a23.15,23.15,0,0,0,1.6-4.71c.1-.45.15-.71.16-.8a24.22,24.22,0,0,0,.43-4.49,24,24,0,0,0-23.92-23.89Z"/><path class="cls-6" d="M567.13,566.2a23.92,23.92,0,0,0-23.89,23.89,24.21,24.21,0,0,0,.42,4.49c0,.09.07.35.17.8a23.36,23.36,0,0,0,1.6,4.71c2.57,6.06,8.23,15.37,20.65,25.34a1.7,1.7,0,0,0,1.06.38,1.73,1.73,0,0,0,1.07-.38c12.4-10,18.08-19.28,20.65-25.34a23.15,23.15,0,0,0,1.6-4.71c.1-.45.15-.71.16-.8a24.22,24.22,0,0,0,.43-4.49,24,24,0,0,0-23.92-23.89ZM587.27,594s0,0,0,.08,0,.25-.11.53v0a19.76,19.76,0,0,1-1.39,4.07s0,0,0,0c-2.34,5.54-7.46,14-18.61,23.19-11.15-9.2-16.27-17.65-18.61-23.19,0,0,0,0,0,0a21.48,21.48,0,0,1-1.39-4.07v0c-.07-.28-.1-.47-.11-.53s0-.05,0-.09a20.52,20.52,0,1,1,40.28,0Z"/><path class="cls-6" d="M567.13,575.19a15.17,15.17,0,1,0,15.17,15.17,15.19,15.19,0,0,0-15.17-15.17Zm0,27a11.8,11.8,0,1,1,11.8-11.79,11.81,11.81,0,0,1-11.8,11.79Z"/><path class="cls-3" d="M991,1043.88l7.52-12.65.4-2.76,1.24-1v-.17l.89-2.78,1.79-1.27.94-1.94,5.64-3.44v-1.36l2.29-4.66,1.55-.55,1.8-2.09,4.48-2.55,2-2.54.65-2.78,3.82-1.54.18-.83-.49-.5-.37-2.78.5-1.14V993.1l.1-.18v-2l1-1,0-.39-2.93-.32-.46-.58-1-.07-.63-.79-2.38-1.45v-.27l-1-3.27.57-2.13.32-.49v-.5l-.19-.52-1.79-1.86H977l-58.21-.12h-34L861,977.17l-51.06.12-39.53.06-34.49-.06-47-.06-1.87.06-58.69-.12L606.53,977l-61.34.07-.06-26.56L545,937.62l.1-38.67.2-40.38.24-92.11.14-43.61.15-11.49.19-34.6.25-14.42,0-26.13,0-10.76-1.49.18L542,623.79l-.53-.86-.57.41-5.66.1-4.47-2.54-1.56-2.38-1.39,0-5.53-3.16-.33-3.37.53-1.66L516,604l-1.78-7.88.5-1.35-.68-.11-2.72-2-.79-2.29-.73-.24-2.18-2.46-.5-1.36-5.44-2.78-1.7-2.82-.49-2.73-4.6-3.85-.63-.6-1.68-4.07-.1-3,1-2.55,2.18-2.24,3-.81.34.1-.15-.41v-2.21l2.86-6,6.26-3.69.2-5.88,2.36-2.75,1-.3v-2.45l2-3,1-.29-1.26-.41-2.88-5.31.62-1.24-1.53,0-.14,1-2.5,3.13-14-1.23-2.47-2.71-.58.23-5-1.81-1.92-2.4v-2.2l-1.33-.2-8.56-7-.74-1.79-2.76-2.35-4.82.26L461,505.89l-.6-2.86.22-2.21,1-2.22-.07-1.08.37-1.4-2.17-2.91-.44-2.24-5.7-5.06.31-3.43,1.12-2L448.74,479H448L446,474.83l.17-1.34-2.74-1-3.76,1.21-3.38-1.92-1.11-3.25.58-3.38,2-1.19-.07-.07-.78-4.15-2.24-4.1.4-2.48-3.46-3.35-.8-2v-3l.89-.92-3.8-.48-3.11-2.26-.82-2.9.09-1-.05-.15-.47-.45-.64-2.65.7-3.28,3.62-2.68,42.05.75,18,.24,30.29.61,30.06.49,16.89.12,25.24-.07,22.79-.36,25.41-.48,23.5-.25,18.4-.12,30.13-.54,40.49-.85,8-.12,30-.79,18.69-.43,24.93-.84,24.93-1.07,2,3,3.47,2.39.94,3.39,4.45,1.23,2.8,2.51-.17,3.27,2,1.49,1.54,3.18,5.49.75,1.6,4.8-.42.72.71,1.47-.23.59,2.14,1.34,5.54,1.11,4.85,4-5.82,5-3.81,9.2.12.3v1.95l-1.33,3.1-.17.18-.25,5.2-.56,1.74,1.87,18.08,5.49,10.24,2.48,4.06-.19,3.45-2.51,3.08-.2.88.7,1.87,8.22,7.63-.44,6.66-.35,1.3L902.2,548l13.21,11.4,1.07.68,1.83,5.64,3.59.56,3.56,2.68,3.79,8.38,12.24,8.23.4.84,8.52,6.47h.27l1.21,1.12,12.2,11.77,1.51,5.06,4.67,18.68L967,635.1l1.49,2.86v.92l2,3.09.15,4.63,1.35,3.49,5.61,4.35,3.83-2.59,4-7.79,4.79-2.17,20.84,6.51.33.4,16.91,9.51,1.59,2.12.82,2.93-1.4,5.83-1,1.81-5,4-3.59,4.81,2.79,4.8.4,2.16.27,5-8.3,12.86,11.65,11.54.1,2,11.45,11.24,12.14,0,.82,2.56.34.37.65,1.64,0,.92.23.58v2.17l-1.09,2,.14.42.62.37,1.76,3.67-.84,1,1,3.86-15.58-.19v10.32l-11.6,4,1.61.78,1,3,11.55,8.18,2.66-.22,3.65,1.9.88,2.77v2.76l-2.54,2.56,1.31,2.37.53.14,4.53-4,4-.65,6.92,5.52v.18l12.19,8.79,3.31,4.79-.77,2.68,4.44,1.41,1.06,2.18,10.64,5.15-.35,7.52,4.23,6-.41,4.38-3.22,2.16-.54,0,9.73,20.29-1.55,10-6.8,2.07-1.19,1.29-.45,2,0,0,.67,0,1.88-.17,2.32,1.64,1.3,2.47-.81,4.11,9.78,17.15-.3,1.32,2-1.7,9.81.3,2.54,5,3.84,2.83.58,3.45,2.69-.91,3.65.79,2.34,1.79,1.64,3.37v3.9l-3.66,13.18-4.13,3.09,3.4.85,1.16,1.44,1.2,2.18v5.07l-3.3,3.23-5.1-.74v.1l2.83,4.34.17,1.35.47.76.34,3-3.84,4.58-1,6.1-4,4.49-5.94.92-3.69-2.18-4.7-6.46-4.21,15-3.41,5-4.22,2.63-2.68.28-2.44-1.25,2.45,5,.29,5.61-1.74,3.58-2.62,2.17-1.64.18,3.36,2.42.15,3.92-.75,2.35-2.42,2.83-10.21.2,2,1.91,6,5.93.39,2.93-1.12,3.73-8.18,5.08-.75,5.39-5.49,8-62.57.63Zm15.38-11.15-.18,1.23-.92,1.54,2.17,0,58.47-.59,2.07-3,1-7.23,7.35-4.57-2.59-2.58-7.15-6.68-1.24-3.1,1-3.25,2.36-2.42,10-.2-3.49-2.52-.94-3.52.62-3.38,2.42-2.58,7.81.43-.08-1.62-4-8.14.76-1.34v-.75l2.33-2.1-.75-1.08-2.62-3.49-1.65-5.6.66-3.15,1.88-2.78,4.45-2.08,9.32,1.54,2.2,5.51,2.71-9.63,1.84-2.57,3.32-1.71,4.42.44,2.37,1.31,5.23,7.19.17,0,.54-.6,1-6,2.71-3.13,0-.27-3.09-4.75v-4.91l1.9-3.37,1.86-1.26,0,0-1.61-3.32.25-6.17,2.82-2.76,2.18-.21.44-.33,2.64-9.69-4.19,1.42-3.27-1-2-2.23-.41-2.41-2.13,2.43-2.41,1-3.74-.73-2.6-2.85-8.61-5.65-1-3,1-4.52-9.72-17,.31-1.56-1.45-.06-3.39-4.7-.7-2.88,1.36-6.13,4.17-4.55,1.53-.42,2.51-.76.39-2.54-10.28-21.44.12-2.4.16-1.12.38-1.84,1.85-2.32-1.85-2.63.23-5-8.37-4.06-.78-1.58-6-1.88v-.77l-1.76-3.1,1-3.5-.38-.54-9.28-6.69-1.41-.1-2.82-3.31-1.25-1-3.25,2.87-3.58,1-6.12-1.64-4.63-8.33V783.6l.42-1.18L1022.69,772l-.8-2.27-16-7.82,24.5-8.4V740.83l12.59.15v0l-.19-.3-.48-2.44-.56-.71-11.51,0V733l-11.41-11.2-.1-2.07-13.37-13.23,1.67-4.34,8.06-12.49-.11-2.14-3.32-5.7v-4.53l4.71-6.3v-.91l1.76-1.14,3.8-3,.42-1.76-15.3-8.6-15.9-5-3.49,6.79-10.33,7-12-9.35-1.14-3.21-1.39-3.49-.14-3.86-2-3.22v-1.26l-2-3.87.23-2.6,3-5.13-3.86-15.43-.83-2.79-10.39-10-11.16-8.48-.29-.61-12.3-8.27L919,574.16l-.32-.24-4.66-.73-2.66-2.88-1.71-5.26-12.75-11-7.19-6.42-.79-4.42.62-2.3.14-2.08-6.82-6.32-2.21-5.89,1.16-5,1.42-1.74-.82-1.36-6.29-11.73-2.21-21.33.71-2.42.43-7,1-1.09V473l.69-2.1,3.43-8.23h-1.45l-2.28-3.17-4-2.49V454l-.28-.34-.24-1.07-1.47-.2-2.7-2.44-1.46-3-2.92-2.13-.91-2.84,0-.79-5.45-1.5-1.78-3.45v-1.77l-2-1.38-.34-.52-20.44.87-25,.85-18.72.43-30.06.79-8,.12-40.48.85L680,437l-18.43.12-23.46.25-25.38.48-22.86.36-25.33.07-17-.12-30.11-.49L487.21,437l-18-.24-26-.46.47,1.13-.16,4-1.11,2.8-1.47.62V446l-.82.91,2.49,2.41.67,3.45L443,454.2l1.54,2.81.59,3.13,1.16,1.26.87,2.36-.21,1.5,4.34,1.59,2.61,2.54.71,2.06,0,.76,5.63,1.34,2.82,4.85v4.21l-.4.67,3.93,3.49.4,2,1,.14,2.59,2,.76,2.37v3l-1.7,2.12.11,1.6-.69,1.58,3.25-.17,6.65,5.66.72,1.72,5.3,4.36,4.88.73,1.57,4.2,1.87-.77,4.09,3,.29,1.94,4.54.4,2.24-3.09,3.94-.93,1.48.37,6.17.14,3.15,2.35,1.13,2.85v2.2l-.38.75,3,1,2.58,3.8v1.19l.15,2-.64,1.68,1.56,1.74.62,4.8-.89,2.46-4.82,4.62L516,548.33l-.08,2.55-1.2,3-6.82,4-.82,1.72.91,2.58-.65,3-2.92,3.3-2.66.86,4.13,3.4,1.25,2.35.41,2.31,6,3.07,1,2.66,1.34.45,2.25,2.65h0l1.71-.62,3.41,1.91,1.77,2.69.22,2.5-1.13,2.81-1.5,1.24.7,3.09,7.9,7.77-.44,2.86,2.52.06,2.09,2.79,1,1.49.87.5,1,0,2-1.37,3.94-.14,3,1.59,1.08,1.67,3-.37,2.86,1.38,1.68,3.13v2.47l-1.6,3.27,0,9.18,0,26.23L554,676.85l-.19,34.58-.15,11.49-.29,97.27L553.28,862l-.2,37v7.67l-.1,30.94.15,12.86,0,18.6,53.39-.06,21.86.18,58.6.12,1.86-.06,55.49.06,26,.06,42.92-.06,47.67-.12,27.71.06h30.07l58.22.12h50.06l-1.23,4.47,1.73,4.78v.76l.42,1.36-.15.49.38.48,2.25.24,3.13,2.45,1.55,3-.42,6.23-.27.26,0,.09-.46.87v.71l.67.7.4,2.46-.44,2.9-1,1-.27,1.24-1.71,2.34-2.58,1-.88,3.74-8,4.53-2.27,2.64-.49.17,0,.08v2.22l-1.2,2.49-6.26,3.83-.81,1.69-1,.7v2ZM1088,968.07l1.22,1.62.73-2.12-.3-.76-2.12-.35Z"/><path class="cls-3" d="M517.51,386.2a40.14,40.14,0,0,0-40.08,40.09,39.58,39.58,0,0,0,.71,7.52c0,.15.1.59.27,1.34a39.26,39.26,0,0,0,2.69,7.91c4.32,10.17,13.81,25.79,34.65,42.52a2.88,2.88,0,0,0,3.57,0c20.81-16.73,30.33-32.35,34.65-42.52a38.21,38.21,0,0,0,2.68-7.91c.17-.75.26-1.19.28-1.34a41.28,41.28,0,0,0,.71-7.52,40.2,40.2,0,0,0-40.13-40.09Z"/><path class="cls-6" d="M517.51,386.2a40.14,40.14,0,0,0-40.08,40.09,39.58,39.58,0,0,0,.71,7.52c0,.15.1.59.27,1.34a39.26,39.26,0,0,0,2.69,7.91c4.32,10.17,13.81,25.79,34.65,42.52a2.88,2.88,0,0,0,3.57,0c20.81-16.73,30.33-32.35,34.65-42.52a38.21,38.21,0,0,0,2.68-7.91c.17-.75.26-1.19.28-1.34a41.28,41.28,0,0,0,.71-7.52,40.2,40.2,0,0,0-40.13-40.09Zm33.8,46.63s0,.08,0,.12-.09.42-.19.91v0a33.58,33.58,0,0,1-2.33,6.83s0,.06,0,.09c-3.92,9.28-12.52,23.46-31.22,38.91-18.7-15.45-27.29-29.63-31.21-38.91,0,0,0-.07-.05-.09a35.7,35.7,0,0,1-2.32-6.83v0a8.63,8.63,0,0,1-.19-.91s0-.08,0-.14a34.42,34.42,0,1,1,67.59,0Z"/><path class="cls-6" d="M517.51,401.28A25.45,25.45,0,1,0,543,426.73a25.49,25.49,0,0,0-25.45-25.45Zm0,45.24a19.79,19.79,0,1,1,19.79-19.79,19.82,19.82,0,0,1-19.79,19.79Z"/></g><path class="cls-3" d="M576,1029.4A514.83,514.83,0,0,1,375.7,40.45,514.83,514.83,0,0,1,776.39,989,511.52,511.52,0,0,1,576,1029.4Zm0-1017A502.43,502.43,0,0,0,380.53,977.53a502.43,502.43,0,0,0,391-925.66A499.19,499.19,0,0,0,576,12.4Z"/></g></g></svg>