<?xml version="1.0" encoding="UTF-8"?><svg id="Layer_2" xmlns="http://www.w3.org/2000/svg" viewBox="0 0 24 24"><defs><style>.cls-1{fill-rule:evenodd;}</style></defs><g id="Icons"><g><path class="cls-1" d="M10.9,10.19c-.32,0-.55,.13-.71,.38-.15,.25-.23,.63-.24,1.15v1.06c0,.52,.08,.9,.23,1.15,.16,.25,.39,.37,.72,.37s.55-.12,.7-.36,.23-.61,.23-1.12v-1.03c0-.54-.08-.93-.23-1.2-.15-.26-.39-.39-.71-.39Z"/><path class="cls-1" d="M12,0C5.37,0,0,5.37,0,12s5.37,12,12,12,12-5.37,12-12S18.63,0,12,0ZM7.9,15.21h-1.2v-1.61l.11-2.48-1.19,4.08h-.82l-1.19-4.08,.11,2.48v1.61h-1.2v-5.94h1.57l1.12,4.3,1.12-4.3h1.57v5.94Zm5.15-2.44c0,.8-.19,1.42-.56,1.86-.38,.44-.9,.66-1.57,.66s-1.19-.22-1.57-.66-.57-1.05-.58-1.83v-1.02c0-.82,.19-1.45,.57-1.91,.38-.46,.9-.69,1.58-.69s1.18,.23,1.56,.68,.57,1.08,.58,1.9v1.02Zm4.84,2.44h-1.29l-.89-2.17h-.6v2.17h-1.2v-5.94h1.91c.6,0,1.07,.16,1.39,.47,.33,.31,.49,.75,.49,1.33,0,.79-.29,1.34-.86,1.66l1.04,2.43v.06Zm.64,0v-5.94h3.4v1h-2.2v1.4h1.87v.97h-1.87v1.58h2.21v1h-3.41Z"/><path class="cls-1" d="M15.81,10.27h-.7v1.77h.68c.24,0,.42-.08,.54-.24s.18-.37,.18-.64c0-.6-.23-.89-.7-.89Z"/></g></g></svg>