<?xml version="1.0" encoding="utf-8"?>
<!-- Generator: Adobe Illustrator 27.7.0, SVG Export Plug-In . SVG Version: 6.00 Build 0)  -->
<svg version="1.1" id="Layer_1" xmlns="http://www.w3.org/2000/svg" xmlns:xlink="http://www.w3.org/1999/xlink" x="0px" y="0px"
	 viewBox="0 0 24 24" style="enable-background:new 0 0 24 24;" xml:space="preserve">
<style type="text/css">
	.st0{fill:#FFFFFF;}
</style>
<g>
	<path class="st0" d="M12,0C5.4,0,0,5.4,0,12s5.4,12,12,12s12-5.4,12-12S18.6,0,12,0z M14.8,19L11,13.6L6.3,19H5l5.4-6.2L5,5h4.1
		l3.6,5.1L17.3,5h1.2l-5.2,5.9l5.6,8H14.8z"/>
	<polygon class="st0" points="12.1,10.9 8.6,5.9 6.7,5.9 11.1,12.1 11.6,12.8 15.4,18.1 17.3,18.1 12.7,11.7 	"/>
</g>
</svg>
