<?xml version="1.0" encoding="utf-8"?>
<!-- Generator: Adobe Illustrator 27.7.0, SVG Export Plug-In . SVG Version: 6.00 Build 0)  -->
<svg version="1.1" id="Layer_1" xmlns="http://www.w3.org/2000/svg" xmlns:xlink="http://www.w3.org/1999/xlink" x="0px" y="0px"
	 viewBox="0 0 250.6 250.6" style="enable-background:new 0 0 250.6 250.6;" xml:space="preserve">
<style type="text/css">
	.st0{fill:#FFFFFF;}
</style>
<g>
	<path class="st0" d="M194.2,90.6c-0.4-8.3-1.8-12.9-3-15.9c-1.6-4-3.4-6.8-6.4-9.8c-3-3-5.8-4.8-9.8-6.4c-3-1.2-7.5-2.5-15.9-2.9
		c-9-0.4-11.7-0.5-34.6-0.4c-22.8,0-25.5,0.1-34.5,0.6c-8.3,0.4-12.9,1.8-15.9,3c-4,1.6-6.8,3.4-9.8,6.4c-3,3-4.8,5.8-6.4,9.8
		c-1.2,3-2.6,7.5-2.9,15.9c-0.4,9-0.5,11.7-0.4,34.5c0,22.8,0.1,25.5,0.6,34.5c0.4,8.3,1.8,12.9,3,15.9c1.6,4,3.4,6.8,6.4,9.8
		c3,3,5.9,4.8,9.8,6.4c3,1.2,7.5,2.5,15.9,2.9c9,0.4,11.7,0.5,34.5,0.4c22.8,0,25.5-0.1,34.5-0.6c8.3-0.4,12.9-1.8,15.9-3
		c4-1.6,6.8-3.4,9.8-6.4c3-3,4.8-5.9,6.4-9.8c1.2-3,2.5-7.5,2.9-15.9c0.4-9,0.5-11.7,0.4-34.5C194.7,102.3,194.6,99.6,194.2,90.6z
		 M124.7,169.2c-24.2,0-43.9-19.6-44-43.8c0-24.2,19.6-43.9,43.8-44c24.2,0,43.9,19.6,44,43.8C168.6,149.5,149,169.2,124.7,169.2z
		 M170.2,89.8c-5.7,0-10.3-4.6-10.3-10.2c0-5.7,4.6-10.3,10.2-10.3c5.7,0,10.3,4.6,10.3,10.2C180.5,85.2,175.9,89.8,170.2,89.8z"/>
	<path class="st0" d="M124.6,0C55.4,0-0.7,56-0.7,125.3s56,125.3,125.3,125.3s125.3-56,125.3-125.3S193.9,0,124.6,0z M209.7,160.4
		c-0.4,9.1-1.8,15.3-3.9,20.8c-2.2,5.6-5.1,10.4-9.8,15.2c-4.7,4.8-9.5,7.7-15.1,9.9c-5.4,2.1-11.6,3.6-20.7,4
		c-9.1,0.4-12,0.5-35.3,0.6c-23.2,0-26.1,0-35.2-0.4c-9.1-0.4-15.3-1.8-20.8-3.9c-5.6-2.2-10.4-5.1-15.2-9.8
		c-4.8-4.7-7.7-9.5-9.9-15.1c-2.1-5.4-3.6-11.6-4-20.7c-0.4-9.1-0.5-12-0.6-35.3c0-23.2,0-26.1,0.4-35.2c0.4-9.1,1.8-15.3,3.9-20.8
		c2.2-5.6,5.1-10.4,9.8-15.2c4.7-4.8,9.5-7.7,15.1-9.9c5.4-2.1,11.6-3.6,20.7-4c9.1-0.4,12-0.5,35.2-0.6c23.2,0,26.1,0,35.3,0.4
		c9.1,0.4,15.3,1.8,20.8,3.9c5.6,2.2,10.4,5.1,15.2,9.8c4.8,4.7,7.7,9.5,9.9,15.1c2.1,5.4,3.6,11.6,4,20.7c0.4,9.1,0.5,12,0.6,35.2
		C210.2,148.4,210.1,151.3,209.7,160.4z"/>
	<path class="st0" d="M124.6,96.8c-15.7,0-28.5,12.8-28.4,28.6c0,15.7,12.8,28.5,28.6,28.4c15.7,0,28.5-12.8,28.4-28.6
		C153.1,109.5,140.3,96.8,124.6,96.8z"/>
</g>
</svg>
