<svg xmlns="http://www.w3.org/2000/svg" viewBox="0 0 24 24"><defs><style>.cls-1{fill:#fff;}</style></defs><title>youTube</title><g id="Layer_2" data-name="Layer 2"><g id="Icons"><g id="youTube"><polygon class="cls-1" points="9.07 12.53 6.21 12.53 6.21 13.41 7.17 13.41 7.17 18.68 8.11 18.68 8.11 13.41 9.07 13.41 9.07 12.53"/><path class="cls-1" d="M10.61,17.52a.19.19,0,0,1,0,.08,1,1,0,0,1-.4.32.21.21,0,0,1-.29-.17,1,1,0,0,1,0-.18c0-1.11,0-3.4,0-3.42H9.07V18a1.17,1.17,0,0,0,.09.48.46.46,0,0,0,.37.29.7.7,0,0,0,.38,0,1.55,1.55,0,0,0,.64-.46s0,0,.06-.06v.5h.83V14.14h-.83Z"/><path class="cls-1" d="M11.54,9.15a.35.35,0,0,0,.35-.35V6.33a.35.35,0,0,0-.7,0V8.8A.35.35,0,0,0,11.54,9.15Z"/><path class="cls-1" d="M14.51,14.5a.72.72,0,0,0-.86-.39.93.93,0,0,0-.47.3.56.56,0,0,0-.09.14v-2h-.83v6.14h.83v-.34l.08.08a1,1,0,0,0,.7.33.68.68,0,0,0,.7-.5,1.53,1.53,0,0,0,.07-.47V15.19A1.63,1.63,0,0,0,14.51,14.5Zm-.72,3.16a.59.59,0,0,1,0,.14.27.27,0,0,1-.36.22.5.5,0,0,1-.29-.18l0,0h0V15h0a.21.21,0,0,1,.06-.08.41.41,0,0,1,.33-.13.28.28,0,0,1,.25.17.76.76,0,0,1,.06.26v2.43Z"/><path class="cls-1" d="M12,0h0A12,12,0,0,0,0,12H0A12,12,0,0,0,12,24h0A12,12,0,0,0,24,12h0A12,12,0,0,0,12,0Zm1.46,5.29h.84V8.76a.61.61,0,0,0,0,.14.19.19,0,0,0,.27.16.77.77,0,0,0,.4-.31.11.11,0,0,0,0-.08V5.29h.84V9.85H15V9.36l-.26.25a1.12,1.12,0,0,1-.54.28.54.54,0,0,1-.69-.37,1.21,1.21,0,0,1,0-.34Zm-1.92-.12a1.21,1.21,0,0,1,1.21,1.21V8.75a1.21,1.21,0,0,1-2.42,0V6.38A1.21,1.21,0,0,1,11.54,5.17ZM8.28,3.67s.39,1.63.57,2.41h0c.19-.78.57-2.41.57-2.41h1L9.31,7.22a.45.45,0,0,0,0,.12v2.5H8.41V7.34a.43.43,0,0,0,0-.12L7.32,3.67ZM18.86,18.22a2.07,2.07,0,0,1-2,2.06c-3.23.07-6.45.07-9.68,0a2.07,2.07,0,0,1-2-2.06v-5a2.07,2.07,0,0,1,2-2.06c3.23-.06,6.45-.06,9.68,0a2.07,2.07,0,0,1,2,2.06Z"/><path class="cls-1" d="M17.71,16.51s0-.79,0-1.15a2.28,2.28,0,0,0,0-.45A1,1,0,0,0,17,14.1a1.53,1.53,0,0,0-.36-.07,1.23,1.23,0,0,0-1,.4,1.35,1.35,0,0,0-.32.94c0,.68,0,1.35,0,2a2.31,2.31,0,0,0,.06.52,1.09,1.09,0,0,0,.62.79,1.42,1.42,0,0,0,.79.08,1,1,0,0,0,.87-.71,4.16,4.16,0,0,0,.1-1h-.85v.59a.37.37,0,0,1-.74,0V16.51Zm-1.58-1.34a.37.37,0,0,1,.74,0v.64h-.74Z"/></g></g></g></svg>